<svg width="500" height="720" viewBox="0 0 500 720" fill="none" xmlns="http://www.w3.org/2000/svg">
  <defs>
    <linearGradient id="glass" x1="100" y1="130" x2="394" y2="608" gradientUnits="userSpaceOnUse">
      <stop stop-color="#FFE1C7" stop-opacity="0.86"/>
      <stop offset="0.45" stop-color="#8B3A18" stop-opacity="0.44"/>
      <stop offset="1" stop-color="#2A0C07" stop-opacity="0.42"/>
    </linearGradient>
    <linearGradient id="juice" x1="154" y1="262" x2="350" y2="552" gradientUnits="userSpaceOnUse">
      <stop stop-color="#FFB36D"/>
      <stop offset="1" stop-color="#6F1E0C"/>
    </linearGradient>
    <radialGradient id="glow" cx="0" cy="0" r="1" gradientUnits="userSpaceOnUse" gradientTransform="translate(250 372) rotate(90) scale(276 212)">
      <stop stop-color="#FF8D42" stop-opacity="0.5"/>
      <stop offset="1" stop-color="#FF8D42" stop-opacity="0"/>
    </radialGradient>
  </defs>
  <ellipse cx="250" cy="620" rx="144" ry="32" fill="#000" fill-opacity="0.2"/>
  <ellipse cx="250" cy="362" rx="194" ry="260" fill="url(#glow)"/>
  <rect x="198" y="80" width="104" height="86" rx="16" fill="#5A2414"/>
  <rect x="216" y="28" width="68" height="72" rx="16" fill="#7F2E11"/>
  <rect x="204" y="16" width="92" height="22" rx="8" fill="#D57B43"/>
  <path d="M124 174C124 142.52 149.52 117 181 117H319C350.48 117 376 142.52 376 174V520C376 551.48 350.48 577 319 577H181C149.52 577 124 551.48 124 520V174Z" fill="url(#glass)" stroke="rgba(255,255,255,0.3)" stroke-width="4"/>
  <path d="M148 284C148 260.804 166.804 242 190 242H310C333.196 242 352 260.804 352 284V490C352 515.405 331.405 536 306 536H194C168.595 536 148 515.405 148 490V284Z" fill="url(#juice)"/>
  <path d="M156 194C172 174 194 160 220 154" stroke="#FFD5B8" stroke-opacity="0.44" stroke-width="9" stroke-linecap="round"/>
  <text x="250" y="226" text-anchor="middle" fill="rgba(255,255,255,0.52)" font-size="24" font-family="Georgia, serif" letter-spacing="5">EMBERWOOD</text>
</svg>
