<svg width="500" height="720" viewBox="0 0 500 720" fill="none" xmlns="http://www.w3.org/2000/svg">
  <defs>
    <linearGradient id="glass" x1="98" y1="128" x2="392" y2="604" gradientUnits="userSpaceOnUse">
      <stop stop-color="#70808D" stop-opacity="0.82"/>
      <stop offset="0.5" stop-color="#1E2A35" stop-opacity="0.45"/>
      <stop offset="1" stop-color="#090B11" stop-opacity="0.4"/>
    </linearGradient>
    <linearGradient id="juice" x1="146" y1="255" x2="352" y2="565" gradientUnits="userSpaceOnUse">
      <stop stop-color="#36404C"/>
      <stop offset="1" stop-color="#080A10"/>
    </linearGradient>
    <radialGradient id="glow" cx="0" cy="0" r="1" gradientUnits="userSpaceOnUse" gradientTransform="translate(250 372) rotate(90) scale(278 214)">
      <stop stop-color="#5DA5C1" stop-opacity="0.55"/>
      <stop offset="1" stop-color="#5DA5C1" stop-opacity="0"/>
    </radialGradient>
  </defs>
  <ellipse cx="250" cy="620" rx="144" ry="32" fill="#000" fill-opacity="0.2"/>
  <ellipse cx="250" cy="362" rx="194" ry="260" fill="url(#glow)"/>
  <rect x="194" y="78" width="112" height="88" rx="14" fill="#10161F"/>
  <rect x="214" y="26" width="72" height="74" rx="13" fill="#1C2A36"/>
  <rect x="205" y="18" width="90" height="24" rx="8" fill="#566676"/>
  <path d="M126 174C126 142.52 151.52 117 183 117H317C348.48 117 374 142.52 374 174V520C374 551.48 348.48 577 317 577H183C151.52 577 126 551.48 126 520V174Z" fill="url(#glass)" stroke="rgba(255,255,255,0.28)" stroke-width="4"/>
  <path d="M146 274C146 252.461 163.461 235 185 235H315C336.539 235 354 252.461 354 274V486C354 510.853 333.853 531 309 531H191C166.147 531 146 510.853 146 486V274Z" fill="url(#juice)"/>
  <path d="M154 192C170 172 192 158 218 154" stroke="#B7D0E0" stroke-opacity="0.45" stroke-width="8" stroke-linecap="round"/>
  <text x="250" y="224" text-anchor="middle" fill="rgba(255,255,255,0.54)" font-size="24" font-family="Georgia, serif" letter-spacing="6">NOCTURNE</text>
</svg>
